<svg width="350" height="350" viewBox="0 0 350 350" fill="none" xmlns="http://www.w3.org/2000/svg">
<path d="M261.877 81.7671C225.561 64.8481 197.561 99.3581 189.168 124.138C180.775 148.918 163.009 155.022 147.504 145.187C131.999 135.352 106.771 96.6001 70.7 125.447C34.629 154.294 78.218 233.408 151.305 245.637C192.185 252.476 252.238 239.771 276.297 179.739C290.654 143.969 290.927 95.2981 261.877 81.7671Z" fill="#69B578"/>
<path opacity="0.9" d="M261.877 81.7671C225.561 64.8481 197.561 99.3581 189.168 124.138C180.775 148.918 163.009 155.022 147.504 145.187C131.999 135.352 106.771 96.6001 70.7 125.447C34.629 154.294 78.218 233.408 151.305 245.637C192.185 252.476 252.238 239.771 276.297 179.739C290.654 143.969 290.927 95.2981 261.877 81.7671Z" fill="white"/>
<path d="M175 299.292C249.958 299.292 310.723 295.744 310.723 291.368C310.723 286.992 249.958 283.444 175 283.444C100.042 283.444 39.277 286.992 39.277 291.368C39.277 295.744 100.042 299.292 175 299.292Z" fill="#F5F5F5"/>
<path d="M310.1 257.81V267.4H39.9V257.81C39.8792 257.427 39.9359 257.044 40.0666 256.683C40.1973 256.322 40.3993 255.991 40.6607 255.71C40.922 255.429 41.2373 255.204 41.5877 255.048C41.9381 254.891 42.3164 254.807 42.7 254.8H307.3C307.684 254.807 308.062 254.891 308.412 255.048C308.763 255.204 309.078 255.429 309.339 255.71C309.601 255.991 309.803 256.322 309.933 256.683C310.064 257.044 310.121 257.427 310.1 257.81Z" fill="#2E353A"/>
<path d="M72.1 254.8H55.3V267.4H72.1V254.8Z" fill="#69B578"/>
<path d="M103.6 254.8H87.5V267.4H103.6V254.8Z" fill="#69B578"/>
<path d="M135.8 254.8H119V267.4H135.8V254.8Z" fill="#69B578"/>
<path d="M167.3 254.8H151.2V267.4H167.3V254.8Z" fill="#69B578"/>
<path d="M198.8 254.8H182.7V267.4H198.8V254.8Z" fill="#69B578"/>
<path d="M231 254.8H214.2V267.4H231V254.8Z" fill="#69B578"/>
<path d="M262.5 254.8H246.4V267.4H262.5V254.8Z" fill="#69B578"/>
<path d="M294.7 254.8H277.9V267.4H294.7V254.8Z" fill="#69B578"/>
<g opacity="0.6">
<path d="M72.1 254.8H55.3V267.4H72.1V254.8Z" fill="white"/>
<path d="M103.6 254.8H87.5V267.4H103.6V254.8Z" fill="white"/>
<path d="M135.8 254.8H119V267.4H135.8V254.8Z" fill="white"/>
<path d="M167.3 254.8H151.2V267.4H167.3V254.8Z" fill="white"/>
<path d="M198.8 254.8H182.7V267.4H198.8V254.8Z" fill="white"/>
<path d="M231 254.8H214.2V267.4H231V254.8Z" fill="white"/>
<path d="M262.5 254.8H246.4V267.4H262.5V254.8Z" fill="white"/>
<path d="M294.7 254.8H277.9V267.4H294.7V254.8Z" fill="white"/>
</g>
<path opacity="0.1" d="M310.1 257.81V267.4H39.9V257.81C39.8792 257.427 39.9359 257.044 40.0666 256.683C40.1973 256.322 40.3993 255.991 40.6607 255.71C40.922 255.429 41.2373 255.204 41.5877 255.048C41.9381 254.891 42.3164 254.807 42.7 254.8H307.3C307.684 254.807 308.062 254.891 308.412 255.048C308.763 255.204 309.078 255.429 309.339 255.71C309.601 255.991 309.803 256.322 309.933 256.683C310.064 257.044 310.121 257.427 310.1 257.81Z" fill="white"/>
<path d="M113.4 68.348V169.848C113.373 170.308 113.168 170.74 112.828 171.053C112.489 171.365 112.041 171.533 111.58 171.521H50.869C50.001 171.521 49.7 170.856 49.7 169.988V68.208C49.7 67.459 49.903 66.5 50.652 66.5H65.8C66.0242 66.5351 66.2344 66.6315 66.4073 66.7785C66.5803 66.9255 66.7092 67.1174 66.78 67.333L67.403 68.733C67.4892 68.9147 67.6299 69.065 67.8056 69.1628C67.9813 69.2607 68.1831 69.3013 68.383 69.279H94.22C94.654 69.279 95.039 69.216 95.2 68.817L95.83 67.214C95.9078 67.0162 96.0409 66.8449 96.2134 66.7208C96.386 66.5966 96.5907 66.5248 96.803 66.514H111.79C112.229 66.5865 112.629 66.8089 112.923 67.1433C113.216 67.4776 113.385 67.9033 113.4 68.348Z" fill="#69B578"/>
<path opacity="0.2" d="M113.4 68.348V169.848C113.373 170.308 113.168 170.74 112.828 171.053C112.489 171.365 112.041 171.533 111.58 171.521H50.869C50.001 171.521 49.7 170.856 49.7 169.988V68.208C49.7 67.459 49.903 66.5 50.652 66.5H65.8C66.0242 66.5351 66.2344 66.6315 66.4073 66.7785C66.5803 66.9255 66.7092 67.1174 66.78 67.333L67.403 68.733C67.4892 68.9147 67.6299 69.065 67.8056 69.1628C67.9813 69.2607 68.1831 69.3013 68.383 69.279H94.22C94.654 69.279 95.039 69.216 95.2 68.817L95.83 67.214C95.9078 67.0162 96.0409 66.8449 96.2134 66.7208C96.386 66.5966 96.5907 66.5248 96.803 66.514H111.79C112.229 66.5865 112.629 66.8089 112.923 67.1433C113.216 67.4776 113.385 67.9033 113.4 68.348Z" fill="white"/>
<path opacity="0.4" d="M110.957 77.6931H52.157V150.493H110.957V77.6931Z" fill="white"/>
<path d="M99.4 86.6601C99.0384 86.2969 98.6086 86.0087 98.1353 85.812C97.662 85.6154 97.1545 85.5142 96.642 85.5142C96.1295 85.5142 95.622 85.6154 95.1487 85.812C94.6754 86.0087 94.2456 86.2969 93.884 86.6601C93.5208 87.0217 93.2326 87.4515 93.036 87.9248C92.8393 88.3981 92.7381 88.9055 92.7381 89.4181C92.7381 89.9306 92.8393 90.4381 93.036 90.9113C93.2326 91.3846 93.5208 91.8144 93.884 92.176L96.642 94.934L99.4 92.176C100.13 91.4439 100.54 90.452 100.54 89.4181C100.54 88.3841 100.13 87.3922 99.4 86.6601ZM98 90.7481C97.6458 91.1007 97.1663 91.2987 96.6665 91.2987C96.1667 91.2987 95.6872 91.1007 95.333 90.7481C94.9808 90.395 94.783 89.9167 94.783 89.4181C94.783 88.9194 94.9808 88.4411 95.333 88.0881C95.6872 87.7354 96.1667 87.5374 96.6665 87.5374C97.1663 87.5374 97.6458 87.7354 98 88.0881C98.3522 88.4411 98.55 88.9194 98.55 89.4181C98.55 89.9167 98.3522 90.395 98 90.7481Z" fill="#69B578"/>
<path d="M62.944 135.961C62.2118 135.231 61.22 134.821 60.186 134.821C59.152 134.821 58.1602 135.231 57.428 135.961C56.6979 136.693 56.2879 137.685 56.2879 138.719C56.2879 139.753 56.6979 140.745 57.428 141.477L60.2 144.235L62.958 141.477C63.3203 141.114 63.6074 140.684 63.8028 140.21C63.9983 139.736 64.0982 139.229 64.0969 138.716C64.0956 138.203 63.9931 137.696 63.7952 137.223C63.5974 136.751 63.3081 136.322 62.944 135.961ZM61.544 140.049C61.3701 140.225 61.163 140.365 60.9347 140.46C60.7064 140.556 60.4614 140.605 60.214 140.605C59.9665 140.605 59.7216 140.556 59.4932 140.46C59.2649 140.365 59.0578 140.225 58.884 140.049C58.5318 139.696 58.334 139.218 58.334 138.719C58.334 138.22 58.5318 137.742 58.884 137.389C59.237 137.037 59.7153 136.839 60.214 136.839C60.7127 136.839 61.191 137.037 61.544 137.389C61.8925 137.746 62.0853 138.226 62.0801 138.725C62.0748 139.223 61.872 139.7 61.516 140.049H61.544Z" fill="#69B578"/>
<path d="M102.508 77.7H98.931L102.683 95.802L84.945 100.212L80.283 77.7H76.699L81.543 101.059L62.762 105.7L56.959 77.7H53.403L59.423 106.568L52.157 108.388V112L60.2 109.991L63.833 127.687L52.185 130.599V134.211L64.547 131.117L68.474 150.5H72.051L67.851 130.284L72.835 129.045C73.0011 129 73.1748 128.99 73.3449 129.017C73.515 129.043 73.6775 129.105 73.822 129.199C73.9675 129.289 74.0933 129.407 74.192 129.546C74.2906 129.686 74.36 129.844 74.396 130.011L78.876 150.5H82.453L77.819 129.269C77.6825 128.643 77.4219 128.052 77.0527 127.529C76.6835 127.006 76.2132 126.562 75.6696 126.224C75.1259 125.886 74.52 125.66 73.8876 125.561C73.2553 125.461 72.6093 125.489 71.988 125.643L67.137 126.854L63.469 109.151L82.25 104.489L83.895 112.427C84.11 113.477 84.653 114.431 85.4457 115.152C86.2383 115.873 87.2397 116.323 88.305 116.438L107.394 118.538L110.95 135.688V115.388L88.69 112.924C88.3602 112.887 88.0507 112.746 87.8055 112.522C87.5604 112.298 87.3922 112.003 87.325 111.678L85.645 103.6L110.95 97.3V93.688L106.05 94.899L102.508 77.7Z" fill="#69B578"/>
<path d="M94.535 164.612H68.6C67.4075 164.612 66.2637 164.139 65.4198 163.296C64.5759 162.454 64.1009 161.31 64.099 160.118C64.099 158.924 64.5732 157.779 65.4173 156.935C66.2614 156.091 67.4063 155.617 68.6 155.617H94.549C95.7415 155.619 96.8846 156.094 97.7272 156.938C98.5697 157.782 99.043 158.925 99.043 160.118C99.0421 160.709 98.9247 161.294 98.6977 161.84C98.4707 162.386 98.1383 162.881 97.7197 163.299C97.3011 163.716 96.8044 164.047 96.258 164.272C95.7115 164.497 95.1261 164.613 94.535 164.612Z" fill="#69B578"/>
<path d="M69.433 160.356C69.4149 159.87 69.5424 159.389 69.7993 158.976C70.0562 158.562 70.4307 158.235 70.8747 158.036C71.3188 157.837 71.8123 157.775 72.2918 157.858C72.7713 157.941 73.2151 158.166 73.5662 158.503C73.9172 158.84 74.1597 159.274 74.2623 159.75C74.365 160.225 74.3232 160.721 74.1424 161.173C73.9615 161.625 73.6499 162.012 73.2473 162.286C72.8448 162.559 72.3697 162.706 71.883 162.708C71.5655 162.723 71.2482 162.674 70.9506 162.562C70.6529 162.451 70.3811 162.279 70.1518 162.059C69.9225 161.839 69.7405 161.575 69.6169 161.282C69.4933 160.989 69.4307 160.674 69.433 160.356ZM73.633 160.356C73.6358 160.002 73.5333 159.655 73.3385 159.36C73.1438 159.064 72.8655 158.833 72.5392 158.696C72.2129 158.559 71.8532 158.522 71.5058 158.59C71.1585 158.658 70.8391 158.828 70.5884 159.077C70.3376 159.327 70.1668 159.646 70.0975 159.993C70.0283 160.34 70.0638 160.7 70.1996 161.027C70.3353 161.354 70.5652 161.633 70.86 161.829C71.1547 162.025 71.5011 162.128 71.855 162.127C72.0923 162.139 72.3294 162.101 72.5515 162.017C72.7736 161.932 72.9758 161.803 73.1454 161.637C73.315 161.47 73.4484 161.271 73.5372 161.05C73.6259 160.83 73.668 160.593 73.661 160.356H73.633Z" fill="white"/>
<path d="M78.4 162.659L77.413 161.259H77.126H75.985V162.659H75.327V158.06H77.126C78.316 158.06 79.044 158.662 79.044 159.663C79.0574 159.983 78.9652 160.298 78.7818 160.559C78.5984 160.821 78.3338 161.015 78.029 161.112L79.121 162.659H78.4ZM78.4 159.663C78.4 159.005 77.959 158.627 77.119 158.627H75.999V160.727H77.119C77.938 160.699 78.4 160.3 78.4 159.663Z" fill="white"/>
<path d="M80.094 158.06H82.033C82.3456 158.043 82.6585 158.089 82.9525 158.197C83.2465 158.305 83.5154 158.471 83.7429 158.687C83.9703 158.902 84.1515 159.161 84.2753 159.449C84.3991 159.736 84.4629 160.046 84.4629 160.359C84.4629 160.673 84.3991 160.982 84.2753 161.27C84.1515 161.558 83.9703 161.817 83.7429 162.032C83.5154 162.247 83.2465 162.414 82.9525 162.522C82.6585 162.629 82.3456 162.676 82.033 162.659H80.094V158.06ZM81.991 162.085C82.2311 162.107 82.4731 162.078 82.7016 162.001C82.93 161.924 83.1399 161.8 83.3179 161.637C83.4959 161.475 83.638 161.277 83.7353 161.056C83.8325 160.835 83.8827 160.597 83.8827 160.356C83.8827 160.115 83.8325 159.876 83.7353 159.656C83.638 159.435 83.4959 159.237 83.3179 159.074C83.1399 158.912 82.93 158.788 82.7016 158.711C82.4731 158.634 82.2311 158.605 81.991 158.627H80.752V162.085H81.991Z" fill="white"/>
<path d="M88.851 162.085V162.659H85.519V158.06H88.76V158.627H86.17V160.027H88.48V160.587H86.17V162.071L88.851 162.085Z" fill="white"/>
<path d="M92.988 162.659L91.994 161.259H91.707H90.573V162.659H89.915V158.06H91.7C92.897 158.06 93.618 158.662 93.618 159.663C93.633 159.982 93.5424 160.297 93.3601 160.559C93.1778 160.821 92.9142 161.015 92.61 161.112L93.695 162.659H92.988ZM92.988 159.663C92.988 159.005 92.547 158.627 91.707 158.627H90.594V160.727H91.7C92.526 160.699 92.967 160.3 92.967 159.663H92.988Z" fill="white"/>
<path opacity="0.2" d="M113.4 110.355V169.652C113.398 170.142 113.203 170.611 112.857 170.957C112.511 171.303 112.042 171.498 111.552 171.5H100.569V114.905C100.569 113.698 101.048 112.541 101.902 111.688C102.755 110.834 103.912 110.355 105.119 110.355H113.4Z" fill="black"/>
<path d="M169.4 123.648V225.148C169.371 225.609 169.165 226.041 168.824 226.353C168.483 226.665 168.035 226.833 167.573 226.821H106.862C105.994 226.821 105.7 226.156 105.7 225.288V123.508C105.7 122.759 105.889 121.8 106.645 121.8H121.8C122.024 121.835 122.234 121.932 122.407 122.079C122.58 122.226 122.709 122.417 122.78 122.633L123.403 124.033C123.489 124.215 123.63 124.365 123.806 124.463C123.981 124.561 124.183 124.601 124.383 124.579H150.22C150.647 124.579 151.039 124.516 151.2 124.117L151.83 122.514C151.902 122.31 152.033 122.131 152.206 122C152.379 121.87 152.587 121.793 152.803 121.779H167.762C168.211 121.849 168.62 122.075 168.92 122.417C169.219 122.758 169.389 123.194 169.4 123.648Z" fill="#69B578"/>
<path opacity="0.2" d="M169.4 123.648V225.148C169.371 225.609 169.165 226.041 168.824 226.353C168.483 226.665 168.035 226.833 167.573 226.821H106.862C105.994 226.821 105.7 226.156 105.7 225.288V123.508C105.7 122.759 105.889 121.8 106.645 121.8H121.8C122.024 121.835 122.234 121.932 122.407 122.079C122.58 122.226 122.709 122.417 122.78 122.633L123.403 124.033C123.489 124.215 123.63 124.365 123.806 124.463C123.981 124.561 124.183 124.601 124.383 124.579H150.22C150.647 124.579 151.039 124.516 151.2 124.117L151.83 122.514C151.902 122.31 152.033 122.131 152.206 122C152.379 121.87 152.587 121.793 152.803 121.779H167.762C168.211 121.849 168.62 122.075 168.92 122.417C169.219 122.758 169.389 123.194 169.4 123.648Z" fill="white"/>
<path d="M166.943 132.93H107.674V151.025H166.943V132.93Z" fill="#69B578"/>
<path opacity="0.4" d="M166.943 152.425H107.674V221.431H166.943V152.425Z" fill="white"/>
<g opacity="0.4">
<path d="M113.799 137.487V138.6H115.374V138.985H113.799V140.259H113.351V137.116H115.563V137.508L113.799 137.487Z" fill="white"/>
<path d="M118.3 140.238L117.6 139.3H116.627V140.259H116.2V137.116H117.425C118.237 137.116 118.734 137.529 118.734 138.208C118.745 138.428 118.682 138.645 118.555 138.826C118.428 139.006 118.245 139.138 118.034 139.202L118.776 140.259L118.3 140.238ZM118.3 138.187C118.3 137.739 117.999 137.487 117.425 137.487H116.662V138.887H117.425C117.985 138.901 118.3 138.635 118.3 138.187Z" fill="white"/>
<path d="M119.203 138.663C119.19 138.33 119.278 138 119.454 137.717C119.63 137.434 119.887 137.21 120.191 137.073C120.495 136.937 120.833 136.895 121.162 136.952C121.491 137.009 121.795 137.163 122.035 137.395C122.275 137.626 122.441 137.924 122.511 138.25C122.581 138.576 122.551 138.915 122.427 139.225C122.302 139.534 122.088 139.799 121.812 139.986C121.535 140.173 121.21 140.273 120.876 140.273C120.659 140.283 120.442 140.25 120.238 140.173C120.035 140.097 119.849 139.98 119.692 139.829C119.536 139.678 119.411 139.497 119.327 139.296C119.243 139.096 119.201 138.88 119.203 138.663ZM122.094 138.663C122.097 138.42 122.027 138.181 121.894 137.978C121.761 137.774 121.57 137.615 121.346 137.521C121.122 137.426 120.875 137.4 120.636 137.446C120.397 137.493 120.178 137.609 120.005 137.78C119.833 137.952 119.715 138.171 119.668 138.409C119.62 138.648 119.645 138.895 119.738 139.119C119.831 139.344 119.989 139.536 120.192 139.67C120.395 139.804 120.633 139.875 120.876 139.874C121.037 139.88 121.197 139.853 121.347 139.794C121.497 139.735 121.634 139.646 121.748 139.533C121.862 139.419 121.952 139.283 122.011 139.134C122.071 138.984 122.099 138.824 122.094 138.663Z" fill="white"/>
<path d="M126.14 140.238V137.949L125.006 139.853H124.796L123.662 137.963V140.238H123.2V137.095H123.571L124.88 139.3L126.175 137.095H126.539V140.238H126.14Z" fill="white"/>
</g>
<path d="M154.805 193.977C154.805 196.385 146.972 198.338 137.305 198.338C127.638 198.338 119.805 196.385 119.805 193.977C119.805 191.569 127.638 189.623 137.305 189.623C146.972 189.623 154.805 191.569 154.805 193.977Z" fill="#69B578"/>
<path opacity="0.2" d="M154.805 193.977C154.805 196.385 146.972 198.338 137.305 198.338C127.638 198.338 119.805 196.385 119.805 193.977C119.805 191.569 127.638 189.623 137.305 189.623C146.972 189.623 154.805 191.569 154.805 193.977Z" fill="black"/>
<path d="M146.699 163.562C144.206 161.074 140.827 159.677 137.305 159.677C133.783 159.677 130.404 161.074 127.911 163.562C125.425 166.055 124.03 169.432 124.03 172.952C124.03 176.473 125.425 179.85 127.911 182.343L137.305 191.737L146.699 182.343C149.185 179.85 150.58 176.473 150.58 172.952C150.58 169.432 149.185 166.055 146.699 163.562ZM141.841 177.485C141.245 178.085 140.536 178.562 139.755 178.887C138.974 179.212 138.137 179.379 137.291 179.379C136.445 179.379 135.608 179.212 134.827 178.887C134.046 178.562 133.337 178.085 132.741 177.485C132.14 176.889 131.663 176.181 131.337 175.4C131.012 174.619 130.844 173.781 130.844 172.935C130.844 172.089 131.012 171.251 131.337 170.47C131.663 169.689 132.14 168.98 132.741 168.385C133.337 167.785 134.046 167.308 134.827 166.983C135.608 166.658 136.445 166.491 137.291 166.491C138.137 166.491 138.974 166.658 139.755 166.983C140.536 167.308 141.245 167.785 141.841 168.385C142.442 168.98 142.919 169.689 143.245 170.47C143.57 171.251 143.738 172.089 143.738 172.935C143.738 173.781 143.57 174.619 143.245 175.4C142.919 176.181 142.442 176.889 141.841 177.485Z" fill="#69B578"/>
<path d="M144.676 214.361H129.934C129.344 214.362 128.759 214.246 128.213 214.021C127.667 213.795 127.172 213.464 126.754 213.047C126.337 212.629 126.006 212.134 125.78 211.588C125.555 211.042 125.439 210.457 125.44 209.867C125.439 209.277 125.555 208.692 125.78 208.146C126.006 207.601 126.337 207.105 126.754 206.687C127.172 206.27 127.667 205.939 128.213 205.713C128.759 205.488 129.344 205.372 129.934 205.373H144.676C145.266 205.372 145.851 205.488 146.397 205.713C146.943 205.939 147.438 206.27 147.856 206.687C148.273 207.105 148.604 207.601 148.83 208.146C149.055 208.692 149.171 209.277 149.17 209.867C149.171 210.457 149.055 211.042 148.83 211.588C148.604 212.134 148.273 212.629 147.856 213.047C147.438 213.464 146.943 213.795 146.397 214.021C145.851 214.246 145.266 214.362 144.676 214.361Z" fill="#69B578"/>
<path d="M131.411 211.883L131.656 211.372C132.082 211.721 132.617 211.909 133.168 211.904C133.966 211.904 134.309 211.596 134.309 211.204C134.309 210.084 131.509 210.791 131.509 209.104C131.509 208.404 132.062 207.795 133.266 207.795C133.79 207.784 134.305 207.925 134.75 208.201L134.533 208.726C134.155 208.483 133.716 208.351 133.266 208.348C132.489 208.348 132.153 208.677 132.153 209.083C132.153 210.203 134.953 209.503 134.953 211.183C134.953 211.883 134.386 212.492 133.168 212.492C132.529 212.503 131.906 212.287 131.411 211.883Z" fill="white"/>
<path d="M139.244 211.834V212.408H135.905V207.809H139.153V208.383H136.563V209.783H138.873V210.336H136.563V211.82L139.244 211.834Z" fill="white"/>
<path d="M141.218 208.383H139.643V207.809H143.444V208.383H141.869V212.408H141.218V208.383Z" fill="white"/>
<path opacity="0.2" d="M169.4 169.631V123.648C169.398 123.158 169.203 122.69 168.857 122.343C168.511 121.997 168.042 121.802 167.552 121.8H156.569V165.081C156.569 166.288 157.048 167.445 157.902 168.298C158.755 169.152 159.912 169.631 161.119 169.631H169.4Z" fill="black"/>
<g opacity="0.4">
<path d="M113.974 144.487H112.896V144.102H115.5V144.487H114.422V147.238H113.981L113.974 144.487Z" fill="white"/>
<path d="M115.682 145.67C115.668 145.336 115.754 145.006 115.929 144.722C116.104 144.438 116.361 144.213 116.665 144.075C116.969 143.938 117.307 143.895 117.636 143.951C117.965 144.008 118.27 144.161 118.511 144.392C118.752 144.623 118.918 144.921 118.989 145.247C119.059 145.573 119.031 145.913 118.906 146.223C118.782 146.533 118.568 146.798 118.291 146.985C118.015 147.173 117.689 147.273 117.355 147.273C117.138 147.283 116.922 147.25 116.719 147.174C116.516 147.098 116.33 146.981 116.174 146.831C116.017 146.681 115.893 146.501 115.808 146.301C115.724 146.102 115.681 145.887 115.682 145.67ZM118.573 145.67C118.577 145.427 118.509 145.187 118.376 144.983C118.244 144.779 118.054 144.618 117.83 144.523C117.606 144.427 117.359 144.4 117.12 144.446C116.88 144.491 116.66 144.607 116.487 144.778C116.314 144.949 116.196 145.168 116.147 145.407C116.099 145.645 116.123 145.893 116.216 146.118C116.31 146.343 116.468 146.535 116.67 146.669C116.873 146.804 117.112 146.875 117.355 146.874C117.515 146.879 117.674 146.851 117.823 146.792C117.972 146.734 118.108 146.645 118.222 146.533C118.336 146.42 118.426 146.286 118.486 146.137C118.546 145.989 118.576 145.83 118.573 145.67Z" fill="white"/>
</g>
<path opacity="0.4" d="M159.46 135.877H131.04C130.7 135.876 130.364 135.942 130.049 136.072C129.735 136.201 129.45 136.391 129.209 136.631C128.968 136.871 128.778 137.156 128.647 137.47C128.517 137.784 128.45 138.12 128.45 138.46C128.449 138.8 128.515 139.138 128.645 139.452C128.775 139.767 128.966 140.053 129.207 140.293C129.447 140.534 129.733 140.725 130.048 140.855C130.362 140.985 130.7 141.051 131.04 141.05H159.46C159.8 141.051 160.138 140.985 160.452 140.855C160.767 140.725 161.053 140.534 161.293 140.293C161.534 140.053 161.725 139.767 161.855 139.452C161.985 139.138 162.051 138.8 162.05 138.46C162.05 138.12 161.983 137.784 161.853 137.47C161.722 137.156 161.532 136.871 161.291 136.631C161.05 136.391 160.765 136.201 160.451 136.072C160.136 135.942 159.8 135.876 159.46 135.877Z" fill="white"/>
<path opacity="0.4" d="M159.46 142.884H131.04C130.7 142.883 130.364 142.949 130.049 143.079C129.735 143.208 129.45 143.398 129.209 143.638C128.968 143.878 128.778 144.163 128.647 144.477C128.517 144.791 128.45 145.127 128.45 145.467C128.45 146.154 128.723 146.813 129.209 147.298C129.694 147.784 130.353 148.057 131.04 148.057H159.46C160.147 148.057 160.806 147.784 161.291 147.298C161.777 146.813 162.05 146.154 162.05 145.467C162.05 145.127 161.983 144.791 161.853 144.477C161.722 144.163 161.532 143.878 161.291 143.638C161.05 143.398 160.765 143.208 160.451 143.079C160.136 142.949 159.8 142.883 159.46 142.884Z" fill="white"/>
<path d="M277.2 180.719C277.067 183.519 258.503 187.95 256.116 186.55C253.729 185.15 256.116 166.25 256.116 166.25L270.417 163.331C270.683 163.87 277.347 177.968 277.2 180.719Z" fill="#2E353A"/>
<path d="M273.35 165.55C269.556 167.93 264.705 163.821 261.121 159.649C259.293 157.501 257.625 155.223 256.13 152.831L260.274 146.699L266 152.698L267.05 153.615L266.35 152.355L261.912 145.355L266.658 131.6C266.658 131.6 280.231 161.231 273.35 165.55Z" fill="#69B578"/>
<path opacity="0.2" d="M260.274 146.699L266 152.698C265.3 155.869 263.585 158.466 260.974 159.642C259.146 157.494 257.478 155.216 255.983 152.824L260.274 146.699Z" fill="black"/>
<path opacity="0.2" d="M266.392 152.362L261.919 145.362L266.7 131.6C266.7 131.6 268.8 143.864 266.392 152.362Z" fill="black"/>
<path d="M205.646 137.816L198.87 136.416C198.87 136.416 196.504 134.141 195.65 133.462C194.796 132.783 191.66 131.712 191.128 131.999C190.596 132.286 193.522 133.651 193.522 133.651C193.522 133.651 192.122 136.661 192.395 137.578C192.668 138.495 196.805 139.678 197.183 139.524L204.029 142.142L205.646 137.816Z" fill="#EBB376"/>
<path d="M203.525 136.808L200.347 136.332L198.905 140.658L201.558 141.75L203.525 136.808Z" fill="#69B578"/>
<path opacity="0.6" d="M203.525 136.808L200.347 136.332L198.905 140.658L201.558 141.75L203.525 136.808Z" fill="white"/>
<path d="M278.131 282.905L273.469 283.724L271.558 277.368L269.815 271.53L275.191 269.654L276.752 276.668L278.131 282.905Z" fill="#E4897B"/>
<path opacity="0.2" d="M276.773 276.808L271.579 277.494L269.822 271.6L275.191 269.689L276.773 276.808Z" fill="black"/>
<path d="M247.002 284.9H242.27L241.493 278.306L240.786 272.258L246.407 271.341L246.729 278.523L247.002 284.9Z" fill="#E4897B"/>
<path opacity="0.2" d="M246.729 278.67L241.493 278.439L240.786 272.321L246.407 271.376L246.729 278.67Z" fill="black"/>
<path d="M277.2 273.112L269.535 274.463C261.8 255.192 256.298 239.106 252.413 225.757C250.313 218.554 248.689 212.149 247.436 206.465L247.786 227.465V275.1H240.016C221.081 184.8 234.5 164.164 234.5 164.164L257.152 160.3C258.048 164.482 258.682 168.716 259.049 172.977L260.071 180.467L268.926 226.191L277.2 273.112Z" fill="#69B578"/>
<g opacity="0.5">
<path d="M277.2 273.112L269.535 274.463C262.472 256.858 257.264 241.913 253.435 229.285L252.385 225.785C250.488 219.247 249.165 213.367 247.765 208.089C247.705 207.55 247.585 207.02 247.408 206.507L247.765 227.507V275.1H240.016C228.452 219.947 228.956 190.785 231.098 176.435C232.498 167.286 234.5 164.164 234.5 164.164L257.152 160.3C258.048 164.482 258.682 168.716 259.049 172.977L259.357 175.231L260.057 180.467L268.912 226.191L277.2 273.112Z" fill="white"/>
</g>
<path d="M268.345 273.518L277.858 270.361L277.725 274.407L269.864 276.913L268.345 273.518Z" fill="#69B578"/>
<path opacity="0.6" d="M268.345 273.518L277.858 270.361L277.725 274.407L269.864 276.913L268.345 273.518Z" fill="white"/>
<path d="M239.001 273.959L248.913 272.503L248.08 276.465L239.904 277.564L239.001 273.959Z" fill="#69B578"/>
<path opacity="0.6" d="M239.001 273.959L248.913 272.503L248.08 276.465L239.904 277.564L239.001 273.959Z" fill="white"/>
<path opacity="0.2" d="M253.47 229.285L252.42 225.785C250.523 219.247 249.2 213.367 247.8 208.089L246.995 198.373C246.995 198.373 251.832 187.698 250.019 180.173C250.187 180.6 253.386 188.783 252.119 196.973C251.834 207.762 252.285 218.558 253.47 229.285Z" fill="black"/>
<path opacity="0.2" d="M259.357 175.224L231.098 176.435C232.498 167.286 234.5 164.164 234.5 164.164L257.152 160.3C258.048 164.482 258.682 168.716 259.049 172.977L259.357 175.224Z" fill="black"/>
<path d="M256.27 121.345C256.214 121.395 256.153 121.44 256.088 121.478C255.216 122.144 254.222 122.632 253.162 122.913C250.068 123.613 247.954 123.2 246.575 121.8C244.643 119.7 244.16 115.983 244.433 111.489C244.48 109.703 244.811 107.935 245.413 106.253C245.413 106.253 245.413 106.183 245.413 106.169C245.413 106.155 245.462 106.036 245.49 105.98C245.869 105.031 246.479 104.192 247.265 103.539C248.051 102.886 248.988 102.44 249.991 102.242C250.862 102.049 251.752 101.95 252.644 101.948C261.401 101.857 262.976 116.347 256.27 121.345Z" fill="#EBB376"/>
<path opacity="0.2" d="M256.088 121.478C255.209 122.104 254.215 122.549 253.162 122.787C250.068 123.487 247.954 122.976 246.575 121.555C248.425 122.014 250.375 121.854 252.126 121.1C253.4 120.526 254.8 120.82 256.088 121.478Z" fill="black"/>
<path d="M256.977 129.381C257.516 131.873 254.289 132.881 254.289 132.881C249.011 130.627 248.031 127.82 248.031 127.82C252.434 125.524 251.16 119.028 251.16 119.028L252.056 119.469L258.356 120.701C258.356 120.701 256.613 124.047 256.382 124.81C255.178 128.8 256.977 129.381 256.977 129.381Z" fill="#EBB376"/>
<path d="M245.399 106.19C245.399 106.19 244.923 112.329 250.733 114.968C250.733 114.968 253.232 121.338 256.907 121.429C261.919 121.555 266.336 114.429 264.607 107.156C262.346 97.7411 248.08 96.9711 245.399 106.19Z" fill="#2E353A"/>
<path d="M255.192 99.05C255.192 99.05 245.658 96.425 244.356 103.075C242.55 112.301 249.844 113.288 249.844 113.288C249.844 113.288 250.635 120.988 247.807 123.753C247.807 123.753 254.331 128.324 264.985 124.803C271.95 122.5 265.419 111.65 265.419 111.65C265.419 111.65 269.269 97.419 255.192 99.05Z" fill="#2E353A"/>
<path d="M247.8 113.204C247.8 112.245 248.57 110.635 250.054 110.859C251.538 111.083 252.448 114.877 248.654 115.724C248.115 115.85 247.8 115.199 247.8 113.204Z" fill="#EBB376"/>
<path d="M248.78 99.6729C248.78 99.6729 244.069 98.4689 242.781 104.3C241.493 110.131 245.784 112.336 245.784 112.336" stroke="#2E353A" stroke-width="0.5" stroke-linecap="round" stroke-linejoin="round"/>
<path d="M245.392 127.12C245.392 127.12 250.495 124.369 256.088 126.294C261.681 128.219 260.4 131.95 260.4 131.95L245.392 127.12Z" fill="#69B578"/>
<path opacity="0.5" d="M245.392 127.12C245.392 127.12 250.495 124.369 256.088 126.294C261.681 128.219 260.4 131.95 260.4 131.95L245.392 127.12Z" fill="white"/>
<path d="M266.7 131.6C266.7 131.6 261.863 129.703 257.53 128.513C254.148 127.664 250.709 127.058 247.24 126.7C243.968 126.331 240.674 126.2 237.384 126.308C237.482 127.89 237.545 129.388 237.608 130.795C237.692 132.65 237.748 134.372 237.79 135.968C237.867 138.964 237.86 141.526 237.79 143.808C237.671 148.771 237.071 153.71 235.998 158.557L231.098 170.457L260.4 174.181L258.734 162.512C263.634 148.358 265.678 140.903 266.434 136.675C267.344 131.964 266.7 131.6 266.7 131.6Z" fill="#69B578"/>
<path d="M237.384 126.329C239.038 130.095 239.198 134.349 237.832 138.229C237.832 138.229 221.9 149.625 217.35 148.75C212.8 147.875 200.55 142.219 200.55 142.219L202.475 136.472C202.475 136.472 216.65 139.272 217.875 139.825C219.1 140.378 237.384 126.329 237.384 126.329Z" fill="#69B578"/>
<path d="M263.48 130.41C263.48 130.41 270.319 151.333 271.95 168.651L269.717 168.364C269.717 168.364 266.532 139.909 262.437 130.305L263.48 130.41Z" fill="#2E353A"/>
<path opacity="0.2" d="M263.48 130.41C263.48 130.41 270.319 151.333 271.95 168.651L269.717 168.364C269.717 168.364 266.532 139.909 262.437 130.305L263.48 130.41Z" fill="black"/>
<path d="M270.438 163.345L261.219 165.2L264.25 185.955C270.193 184.73 277.13 182.413 277.214 180.705C277.347 177.968 270.683 163.87 270.438 163.345Z" fill="#2E353A"/>
<path opacity="0.1" d="M277.2 180.719C275.8 181.72 273.238 183.4 270.9 181.181C268.562 178.962 270.431 163.331 270.431 163.331C270.683 163.87 277.347 177.968 277.2 180.719Z" fill="white"/>
<path d="M266.147 167.3C266.147 167.3 264.684 134.673 261.492 129.899L262.437 130.305C262.437 130.305 266.924 135.45 268.198 167.3H266.147Z" fill="#2E353A"/>
<path d="M234.92 295.211C235.633 294.636 236.444 294.195 237.314 293.909C237.314 293.909 239.918 291.326 241.171 283.549L244.58 282.667C245.158 282.526 245.765 282.566 246.32 282.781C246.874 282.997 247.35 283.377 247.681 283.871C247.773 284.01 247.846 284.161 247.898 284.319C248.071 285.153 248.193 285.997 248.262 286.846C248.605 289.485 248.311 295.393 248.311 295.393H247.695L247.45 290.031C247.359 288.211 245.966 290.339 245.567 292.306C245.168 294.273 244.321 296.345 240.331 296.45C235.676 296.534 233.744 296.352 234.92 295.211Z" fill="#2E353A"/>
<path d="M247.8 283.934C248.024 282.114 248.094 278.95 248.094 278.95L240.52 279.79C240.52 279.79 241.437 283.388 240.681 286.09C244.496 285.089 247.8 283.934 247.8 283.934Z" fill="#2E353A"/>
<path d="M265.741 295.211C266.453 294.635 267.264 294.193 268.135 293.909C268.135 293.909 270.739 291.326 271.992 283.549L275.401 282.667C275.979 282.526 276.586 282.566 277.141 282.781C277.695 282.997 278.171 283.377 278.502 283.871C278.594 284.01 278.667 284.161 278.719 284.319C278.892 285.153 279.014 285.997 279.083 286.846C279.426 289.485 279.132 295.393 279.132 295.393H278.516L278.271 290.031C278.18 288.211 276.787 290.339 276.388 292.306C275.989 294.273 275.142 296.345 271.152 296.45C266.497 296.534 264.6 296.352 265.741 295.211Z" fill="#2E353A"/>
<path d="M278.6 283.934C278.824 282.114 278.894 278.95 278.894 278.95L271.32 279.79C271.32 279.79 272.237 283.388 271.481 286.09C275.317 285.089 278.6 283.934 278.6 283.934Z" fill="#2E353A"/>
</svg>
